<?xml version="1.0" standalone="no"?>
<!DOCTYPE svg PUBLIC "-//W3C//DTD SVG 20010904//EN"
 "http://www.w3.org/TR/2001/REC-SVG-20010904/DTD/svg10.dtd">
<svg version="1.0" xmlns="http://www.w3.org/2000/svg"
 width="508.000000pt" height="483.000000pt" viewBox="0 0 508.000000 483.000000"
 preserveAspectRatio="xMidYMid meet">

<g transform="translate(0.000000,483.000000) scale(0.100000,-0.100000)"
fill="#000000" stroke="none">
<path d="M2185 3624 c-91 -22 -110 -32 -129 -71 -9 -19 -21 -70 -27 -112 -10
-79 -3 -274 12 -302 5 -9 25 -24 45 -34 43 -20 79 -13 176 36 66 33 83 66 53
99 -23 25 -38 25 -108 1 l-57 -20 -6 24 c-8 34 -1 42 71 74 67 31 88 54 78 89
-8 31 -48 38 -100 20 l-43 -16 0 29 c0 26 8 33 85 70 91 45 107 65 81 104 -19
29 -42 30 -131 9z"/>
<path d="M2495 3625 c-77 -40 -133 -148 -142 -275 -15 -203 101 -326 244 -261
51 24 80 70 63 102 -11 19 -17 20 -84 14 -83 -8 -94 -1 -107 68 -10 50 6 163
27 195 33 50 64 37 64 -29 0 -62 62 -93 94 -47 33 47 10 187 -37 226 -25 21
-88 25 -122 7z"/>
<path d="M2828 3612 c-33 -14 -81 -65 -101 -110 -19 -40 -22 -65 -22 -162 0
-103 3 -120 25 -164 34 -68 68 -91 133 -91 67 0 107 28 142 99 66 134 30 367
-65 417 -35 19 -81 23 -112 11z m78 -187 c18 -44 18 -126 -1 -171 -11 -28 -19
-35 -37 -32 -29 4 -47 52 -47 126 -2 100 54 151 85 77z"/>
<path d="M3325 2695 c-77 -39 -133 -148 -142 -275 -15 -203 101 -326 244 -261
51 24 80 70 63 102 -11 19 -17 20 -84 14 -83 -8 -94 -1 -107 68 -8 45 4 151
23 192 13 29 47 43 59 24 5 -8 9 -30 9 -50 0 -40 24 -69 58 -69 74 0 67 201
-9 254 -29 20 -75 20 -114 1z"/>
<path d="M1641 2674 c-86 -109 -88 -504 -2 -504 37 0 54 36 65 140 l11 99 35
-86 c40 -100 95 -167 131 -161 59 8 94 128 94 318 -1 104 -4 132 -20 164 -28
56 -49 66 -77 38 -21 -20 -23 -35 -28 -155 -3 -72 -9 -125 -13 -117 -3 8 -21
56 -38 105 -39 113 -64 162 -88 175 -31 16 -48 12 -70 -16z"/>
<path d="M2992 2685 c-54 -17 -72 -32 -72 -61 0 -25 26 -44 61 -44 22 0 22 -1
15 -122 -9 -155 -15 -198 -31 -198 -17 0 -55 -43 -55 -63 0 -62 230 -35 246
29 7 29 -11 54 -38 54 -19 0 -20 5 -14 98 12 185 17 222 30 222 20 0 48 36 44
57 -8 41 -100 55 -186 28z"/>
<path d="M2145 2676 c-43 -18 -80 -66 -102 -128 -25 -72 -25 -216 0 -280 20
-51 72 -104 112 -114 79 -20 161 41 190 140 25 87 18 234 -15 301 -41 83 -111
113 -185 81z m79 -168 c24 -34 22 -168 -2 -199 -39 -47 -74 3 -74 108 -1 95
40 143 76 91z"/>
<path d="M2484 2663 c-37 -40 -74 -186 -74 -292 0 -72 21 -170 41 -194 l19
-22 20 23 c26 32 38 79 46 185 l7 88 23 -90 c24 -97 55 -174 73 -186 32 -19
76 74 103 221 6 35 13 62 16 60 2 -2 8 -37 13 -78 12 -104 38 -205 56 -220 13
-10 18 -8 33 10 25 31 34 112 27 256 -5 129 -24 205 -60 244 -42 45 -78 20
-133 -93 -19 -38 -34 -75 -34 -82 0 -31 -17 -8 -40 54 -29 77 -73 143 -96 143
-8 0 -26 -12 -40 -27z"/>
<path d="M1722 1897 c-56 -21 -100 -71 -118 -134 -23 -77 -16 -212 14 -269 51
-100 154 -136 278 -99 85 25 94 40 94 155 l0 100 -95 0 -95 0 0 -35 0 -35 55
0 55 0 0 -49 c0 -60 -14 -73 -83 -78 -63 -5 -106 18 -130 70 -25 52 -24 205 2
255 42 81 159 85 196 6 14 -30 20 -34 55 -34 48 0 51 14 15 75 -15 26 -39 49
-62 61 -47 22 -137 28 -181 11z"/>
<path d="M2225 1858 c-9 -24 -50 -131 -90 -238 -40 -107 -76 -203 -80 -212 -6
-16 -1 -18 38 -18 l45 0 19 58 20 57 101 3 101 3 22 -61 22 -60 44 0 c39 0 44
2 38 18 -3 9 -44 116 -90 237 -46 121 -86 228 -90 238 -5 12 -18 17 -45 17
-35 0 -39 -3 -55 -42z m93 -171 c17 -50 32 -95 32 -99 0 -5 -31 -8 -70 -8 -38
0 -70 3 -70 7 0 18 62 193 68 193 4 0 22 -42 40 -93z"/>
<path d="M2570 1645 l0 -255 46 0 47 0 -5 192 c-7 222 -12 224 82 -24 63 -167
64 -168 95 -168 30 0 31 1 98 178 38 98 72 184 76 190 4 7 5 -73 3 -178 l-5
-190 47 0 46 0 0 255 0 255 -58 0 -59 0 -69 -186 c-38 -102 -74 -186 -79 -186
-5 0 -41 84 -79 186 l-69 186 -59 0 -58 0 0 -255z"/>
<path d="M3200 1645 l0 -255 170 0 170 0 0 35 0 35 -125 0 -125 0 0 80 0 80
105 0 105 0 0 35 0 35 -105 0 -105 0 0 70 0 70 120 0 120 0 0 35 0 35 -165 0
-165 0 0 -255z"/>
</g>
</svg>
